# xmcd
#
# Track frame offsets: 
#        150
#        12794
#        30682
#        42047
#        71355
#        85975
#        98338
#        118296
#        148371
#        161565
#        184034
#        198672
#        210878
#        235239
#
# Disc length: 3413 seconds
#
# Revision: 0
# Processed by: cddbd v1.5.1PL2 Copyright (c) Steve Scherf et al.
# Submitted via: ExactAudioCopy v0.95a5
#
DISCID=b70d530e
DTITLE=Mizia and Mizia - Love in Vain
DYEAR=1900
DGENRE=Blues
TTITLE0=Walk On
TTITLE1=It Hurts Me Too
TTITLE2=Rollin' and Tumblin'
TTITLE3=Mannish Boy (Hootchie Cootchie Man)
TTITLE4=Little Red Rooster
TTITLE5=Crossroads
TTITLE6=Love In Vain
TTITLE7=Help Me
TTITLE8=Rock Me
TTITLE9=Ain't Nobody's Business
TTITLE10=Long As I Can See The Light
TTITLE11=Got My Mojo Working
TTITLE12=The Thrill Is Gone
TTITLE13=Co sta³o siê kwiatom
EXTD=
EXTT0=
EXTT1=
EXTT2=
EXTT3=
EXTT4=
EXTT5=
EXTT6=
EXTT7=
EXTT8=
EXTT9=
EXTT10=
EXTT11=
EXTT12=
EXTT13=
PLAYORDER=
